<svg width="283" height="120" viewBox="0 0 283 120" fill="none" xmlns="http://www.w3.org/2000/svg">
<path d="M217.586 89.3359C218.775 89.3359 219.488 89.6155 219.916 89.8485L220.153 89.9883L220.771 87.9379L220.629 87.8447C220.058 87.565 218.917 87.2388 217.586 87.2388C213.783 87.2388 211.121 89.8019 211.121 93.5301C211.121 97.1184 213.545 99.5883 217.111 99.5883C218.68 99.5883 219.916 99.2155 220.534 98.8893L220.676 98.7961L220.201 96.8388L219.963 96.932C219.345 97.2116 218.585 97.4913 217.444 97.4913C215.162 97.4913 213.641 95.8602 213.641 93.4369C213.688 90.967 215.257 89.3359 217.586 89.3359Z" fill="#0D0802"/>
<path d="M227.855 87.2388C224.337 87.2388 221.865 89.8019 221.865 93.5301C221.865 97.1184 224.242 99.635 227.665 99.635C230.66 99.635 233.702 97.6777 233.702 93.3437C233.702 89.7087 231.325 87.2388 227.855 87.2388ZM227.76 97.6311C225.858 97.6311 224.432 95.8602 224.432 93.4835C224.432 91.3864 225.478 89.2893 227.807 89.2893C230.042 89.2893 231.087 91.433 231.087 93.4369C231.087 95.8602 229.709 97.6311 227.76 97.6311Z" fill="#0D0802"/>
<path d="M245.777 87.099C245.777 85.0019 246.442 84.0233 247.821 84.0233C248.439 84.0233 248.819 84.1631 249.105 84.2563L249.342 84.3495L249.675 82.299L249.532 82.2524C249.2 82.1126 248.534 81.9262 247.631 81.9262C246.49 81.9262 245.444 82.3456 244.684 83.0447C243.733 83.9301 243.257 85.3748 243.257 87.1922V87.5184H238.836V87.2388C238.836 85.2349 239.454 84.2563 240.738 84.2563C241.261 84.2563 241.689 84.4427 241.879 84.5359L242.116 84.6291L242.687 82.6718L242.544 82.5786C242.354 82.4854 241.641 82.1592 240.785 82.1592C239.502 82.1592 238.456 82.532 237.695 83.2777C236.792 84.1631 236.317 85.5146 236.317 87.332V87.4718H234.7V89.4757H236.317V99.3087H238.836V89.4757H243.257V99.3087H245.824V89.4757H248.629V87.4718H245.777V87.099Z" fill="#0D0802"/>
<path d="M254.714 87.2388C251.387 87.2388 249.057 89.8485 249.057 93.6233C249.057 97.2582 251.387 99.5883 254.999 99.5883C256.901 99.5883 258.232 99.2155 258.945 98.8427L259.088 98.7495L258.612 96.8388L258.375 96.932C257.662 97.2116 256.806 97.4913 255.237 97.4913C253.003 97.4913 251.577 96.1864 251.482 93.9495H259.611L259.658 93.6699C259.706 93.4369 259.706 93.1573 259.706 92.7845C259.706 90.268 258.422 87.2388 254.714 87.2388ZM251.529 92.0854C251.719 90.8738 252.575 89.1495 254.524 89.1495C255.285 89.1495 255.903 89.3825 256.378 89.8485C257.091 90.5476 257.186 91.5728 257.234 92.0854H251.529Z" fill="#0D0802"/>
<path d="M266.837 87.2388C263.509 87.2388 261.18 89.8485 261.18 93.6233C261.18 97.2582 263.509 99.5883 267.122 99.5883C269.024 99.5883 270.355 99.2155 271.068 98.8427L271.21 98.7495L270.735 96.8388L270.497 96.932C269.784 97.2116 268.928 97.4913 267.36 97.4913C265.125 97.4913 263.699 96.1864 263.604 93.9495H271.733L271.781 93.6699C271.828 93.4369 271.828 93.1573 271.828 92.7845C271.876 90.268 270.545 87.2388 266.837 87.2388ZM263.699 92.0854C263.889 90.8738 264.745 89.1495 266.694 89.1495C267.455 89.1495 268.073 89.3825 268.548 89.8485C269.261 90.5476 269.404 91.5728 269.404 92.0854H263.699Z" fill="#0D0802"/>
<path d="M202.606 91.697L11.1188 92.5667L11.1318 95.3162L202.619 94.4465L202.606 91.697Z" fill="#0D0802"/>
<path d="M215.97 56.8544V47.6738C215.067 47.4408 214.259 47.3476 213.165 47.3476C206.51 47.3476 200.567 51.868 198.095 59.0447H197.667L197.335 48.5592H188.682C189.015 53.5456 189.11 58.9514 189.11 65.2427V75.2621H198.903V73.5379C198.903 71.8602 199.141 70.3223 199.331 69.0175C200.662 61.7476 205.654 56.5281 212.642 56.5281C213.926 56.5281 214.972 56.6214 215.97 56.8544Z" fill="#0D0802"/>
<path d="M140.05 70.9281C140.05 69.3903 140.383 68.0388 140.621 66.967C142.665 59.5573 148.94 55.0369 155.69 55.0369C166.292 55.0369 171.901 64.2175 171.901 74.8893C171.901 74.9825 171.901 75.1223 171.901 75.2155H181.789C181.789 74.9825 181.789 74.7961 181.789 74.5631C181.884 58.3456 172.329 47.301 158.828 47.301C150.033 47.301 143.758 51.1689 140.24 57.134H140.003V23.5806H130.257V75.2621H140.05V70.9281Z" fill="#0D0802"/>
<path d="M37.7936 54.9437C45.2097 54.9437 50.6292 60.0233 52.1029 66.2213C52.4357 67.433 52.5308 69.1107 52.5308 70.3223V75.3087H62.4189V23.5806H52.5308V55.4563H52.2931C49.821 51.1689 44.1639 47.301 35.8445 47.301C22.7713 47.301 11.6472 57.9262 11.4095 75.2155H21.4402C21.5828 63.6116 27.6203 54.9437 37.7936 54.9437Z" fill="#0D0802"/>
<path d="M159.018 70.4155C159.018 72.9786 161.157 75.0757 163.772 75.0757C166.387 75.0757 168.526 72.9786 168.526 70.4155C168.526 67.8524 166.387 65.7553 163.772 65.7553C161.157 65.8019 159.018 67.8524 159.018 70.4155Z" fill="#0D0802"/>
<path d="M96.3617 54.6175C108.056 54.6175 112.668 66.0815 112.668 75.1689C112.668 75.2155 112.668 75.2621 112.668 75.2621H122.793C122.793 75.1223 122.793 74.9825 122.793 74.8427C122.793 58.4854 112.192 47.3476 96.5518 47.3476C81.577 47.3476 69.7398 57.6466 69.5496 75.2621H79.5804C79.6279 65.1029 84.6671 54.6175 96.3617 54.6175Z" fill="#0D0802"/>
<path d="M253.478 75.0757C256.104 75.0757 258.232 72.9893 258.232 70.4155C258.232 67.8417 256.104 65.7553 253.478 65.7553C250.853 65.7553 248.724 67.8417 248.724 70.4155C248.724 72.9893 250.853 75.0757 253.478 75.0757Z" fill="#0D0802"/>
<path d="M261.512 75.1223C261.512 75.1689 261.512 75.2155 261.512 75.2155H271.638C271.638 75.0757 271.638 74.9359 271.638 74.7961C271.638 58.4388 261.037 47.301 245.397 47.301C230.422 47.301 218.585 57.6 218.394 75.2155H228.425C228.473 65.1029 233.512 54.5709 245.206 54.5709C256.901 54.6175 261.512 66.0815 261.512 75.1223Z" fill="#0D0802"/>
</svg>
