<svg width="53" height="59" viewBox="0 0 53 59" fill="none" xmlns="http://www.w3.org/2000/svg">
<path d="M7.86396 14.1693L8.44897 22.3962C8.57755 24.2216 8.6354 26.0222 8.62255 27.7856C8.80255 28.3196 9.06613 28.5741 9.41328 28.5493L10.0304 28.3071C10.3776 28.2823 10.3969 26.0409 10.0819 21.5766L10.0047 20.4466C9.91472 19.1924 9.68971 17.0317 9.33613 13.9644L9.21399 13.7658C9.2847 13.7595 9.31685 13.7223 9.31042 13.6602C10.4676 13.2069 11.0783 12.9275 11.149 12.822L11.1426 12.7226C11.1297 12.5364 10.7697 12.4246 10.0626 12.3874L9.85043 12.3998C6.58464 12.9337 4.95818 13.3497 4.97746 13.6416L4.98389 13.7409C5.3439 14.0576 5.74248 14.2004 6.17321 14.1693C6.5525 14.0762 6.86108 14.0203 7.1118 14.0079L7.63895 13.9706C7.78038 13.9706 7.85753 14.0327 7.86396 14.1693Z" fill="#0D0802"/>
<path d="M15.1156 23.905L15.2313 23.8988C15.2249 24.8674 15.2313 25.5814 15.2699 26.0471L15.4756 28.9467C15.5142 29.5055 15.7263 29.847 16.112 29.9774L16.3306 29.9649C16.7292 29.9401 16.9735 29.7787 17.0699 29.4869L16.9992 28.5183C16.8449 26.3079 16.697 23.7374 16.5685 20.8005C16.3242 19.4345 16.0735 17.547 15.8292 15.1441C15.6813 13.0704 15.3856 12.0459 14.942 12.0769L14.4984 12.108C13.7463 12.1576 13.1677 13.4864 12.7755 16.0941C12.1969 17.6712 11.9462 21.4587 12.0234 27.4565C12.0298 27.5062 12.1969 27.8166 12.5377 28.3879C13.412 28.1209 13.8363 27.8725 13.8234 27.6552L13.5727 24.1161C14.492 23.9795 15.0063 23.9112 15.1156 23.905ZM14.3441 16.1997L14.5627 16.1873C14.9484 19.5525 15.1734 21.6573 15.2313 22.4956C15.2442 22.7129 15.1091 22.8681 14.8199 22.955L13.7013 22.9302C13.5148 20.2231 13.727 17.9816 14.3441 16.1997Z" fill="#0D0802"/>
<path d="M22.5343 23.8305L22.5086 23.4269C22.425 22.2844 22.2064 21.1916 21.84 20.1423C20.445 17.6898 19.7057 15.8333 19.6157 14.5729C19.6478 14.0327 19.7571 13.5049 19.9371 12.9896C20.8886 14.0886 21.435 14.6412 21.57 14.6474L21.7821 14.635C22.1614 14.6101 22.4057 14.4549 22.5022 14.1817L22.4636 13.6602C21.8529 12.3128 20.7343 11.6919 19.1078 11.7975C18.2528 11.8534 17.8992 12.9524 18.0535 15.0944C18.1692 15.765 18.3235 16.4107 18.5099 17.0378C20.0914 20.0306 20.9271 22.1913 21.0236 23.5324C21.1007 24.5942 20.9464 25.5752 20.5735 26.4755L20.4707 26.4817C19.7121 25.1405 19.0757 24.2837 18.5614 23.8988L18.3556 24.0167C18.5421 26.6369 19.2749 27.9097 20.5607 27.8228L20.6635 27.8166C22.065 27.3385 22.6886 26.0098 22.5343 23.8305Z" fill="#0D0802"/>
<path d="M27.5744 27.351L28.1916 27.1088C28.5387 27.084 28.558 24.8425 28.243 20.3783L28.1659 19.2483C28.0759 17.994 27.8509 15.8333 27.4973 12.7661L27.3751 12.5674C27.4458 12.5612 27.478 12.524 27.4716 12.4619C28.6287 12.0086 29.2395 11.7292 29.3102 11.6237L29.3037 11.5243C29.2909 11.338 28.9309 11.2263 28.2237 11.189L28.0116 11.2014C24.7458 11.7354 23.1193 12.1514 23.1386 12.4432L23.145 12.5426C23.505 12.8592 23.9036 13.002 24.3343 12.971C24.7136 12.8779 25.0222 12.822 25.2729 12.8096L25.8001 12.7723C25.9415 12.7661 26.0122 12.8282 26.0251 12.9586L26.6101 21.1855C26.7387 23.0109 26.7965 24.8115 26.7837 26.5748C26.9573 27.1212 27.2208 27.3696 27.5744 27.351Z" fill="#0D0802"/>
<path d="M35.2889 18.7639C35.1667 17.0626 34.8839 14.5728 34.4403 11.2883C34.2924 11.0586 34.0803 10.9468 33.8103 10.9654C33.4374 10.9903 33.1738 11.1579 33.0131 11.4684L33.0453 11.9092L33.1803 12.3438C33.1095 12.35 33.0838 12.437 33.0967 12.6108L33.1031 12.7039L33.2188 12.8778C33.1481 12.884 33.116 12.9151 33.1224 12.9771L33.1674 13.598C32.801 16.2803 32.3831 17.6339 31.9074 17.6711L31.6952 17.6835C31.2324 16.9571 30.9559 16.063 30.8788 14.9826L30.7438 13.0454C30.7181 12.7102 30.7245 12.2383 30.7502 11.6298C30.6473 11.1579 30.5316 10.9282 30.3966 10.9406L30.0816 10.9592C29.4645 11.0027 29.2523 12.2879 29.4323 14.8212C29.458 15.2062 29.5287 15.7029 29.6445 16.3114C30.0945 18.0561 30.7438 18.9005 31.5859 18.8446C32.0424 18.7515 32.7045 18.441 33.5853 17.9071C33.8103 19.2109 33.926 19.9126 33.9324 20.0119C34.0738 21.9739 33.8553 23.7932 33.2895 25.4696C32.6724 25.513 32.1709 24.7183 31.7852 23.0915C31.8559 23.0853 31.8881 23.0543 31.8817 22.9922L31.8752 22.8991C31.8109 22.0298 31.9267 21.2475 32.2224 20.5645C32.2159 20.4527 32.1324 20.2789 31.9717 20.0492L31.6695 20.0678C30.7952 20.4341 30.4288 21.5828 30.5638 23.5138C30.9302 25.9104 31.7016 27.0715 32.8781 26.997C34.8646 26.8666 35.6682 24.1222 35.2889 18.7639Z" fill="#0D0802"/>
<path d="M11.1362 43.0472L10.924 43.0597L10.5126 43.4012C10.0755 45.0341 9.74759 46.0275 9.52901 46.4001L9.4133 46.4063C8.98257 46.4373 8.70614 45.5432 8.57756 43.7302L8.44256 43.2273L8.54542 43.2211C8.26899 39.3343 8.53256 35.8511 9.32972 32.7714C9.85688 33.0011 10.1269 33.2309 10.1397 33.4544C10.159 33.6903 9.94688 34.8576 9.50973 36.9625C9.52901 37.2419 9.75402 37.366 10.1912 37.335L10.4097 37.3226C11.3033 36.652 11.6826 35.4351 11.5541 33.6655C11.5283 33.2681 11.4705 33.0322 11.3998 32.9515C11.3548 32.2995 10.4933 31.8959 8.81543 31.7531L8.69971 31.7594C8.08255 31.8028 7.70326 32.492 7.54254 33.8269C7.20182 33.8518 7.07324 37.6392 7.15682 45.2018C7.29182 47.0831 8.00541 47.9772 9.30401 47.8902L9.83116 47.7536C10.9369 47.6791 11.5991 46.2697 11.8176 43.5191C11.8241 43.4136 11.5926 43.2584 11.1362 43.0472Z" fill="#0D0802"/>
<path d="M19.6092 35.9007C19.6671 35.6089 19.6864 35.3108 19.6607 35.0004C18.8121 32.4423 17.8799 31.2005 16.8513 31.2688C16.0992 31.3185 15.6684 31.8276 15.5656 32.8024C15.0898 32.8335 14.7941 36.2484 14.6784 43.0534L14.717 43.606C14.9034 46.2076 15.6877 47.4618 17.0699 47.3687C18.7671 47.2569 19.7057 44.171 19.8857 38.1235L19.8728 37.9C19.8278 37.2667 19.7378 36.5961 19.6092 35.9007ZM18.5614 38.999C18.0085 43.1838 17.5135 45.4873 17.0827 45.9282C16.7742 45.9468 16.5684 45.3259 16.4784 44.0655L16.4206 43.2769C16.1056 38.8189 16.3242 35.4102 17.0892 33.0508C18.0021 33.9014 18.5228 35.2488 18.6578 37.0928C18.6449 38.3036 18.6128 38.9431 18.5614 38.999Z" fill="#0D0802"/>
<path d="M25.8065 38.4277C25.0479 38.614 24.5465 38.7133 24.3022 38.732C24.1415 38.7444 23.9936 38.7195 23.865 38.6575C23.7365 36.8569 23.6979 35.7765 23.7558 35.4288C23.6272 33.5972 24.0065 32.3802 24.9065 31.7841C25.4208 32.2436 25.7294 32.4671 25.8194 32.4609C26.2501 32.4299 26.443 32.1753 26.4108 31.6848L26.3915 31.3806C26.0765 30.9087 25.5558 30.6976 24.8358 30.7472C24.045 30.8838 23.6593 31.0142 23.6657 31.1446C22.5986 31.2129 22.0971 33.237 22.1486 37.2046L22.1871 37.7323L22.11 38.2601C22.1871 38.2539 22.2321 38.2849 22.2321 38.3532L22.1293 38.5767C22.1871 39.4025 22.29 41.7992 22.4314 45.7729C22.7464 46.5925 23.0293 46.9899 23.28 46.9713L23.82 46.934C24.3922 46.8285 24.6622 46.5677 24.6301 46.1455C24.2958 45.5308 24.1158 45.0216 24.09 44.6181C24.0322 43.8295 23.9679 42.3704 23.8843 40.2345C23.9422 40.0917 23.9743 39.9862 23.9679 39.9117C25.4401 39.8123 26.2758 39.4087 26.4815 38.6885C26.4558 38.5519 26.2372 38.465 25.8065 38.4277Z" fill="#0D0802"/>
<path d="M31.0974 38.0738C30.3388 38.2601 29.8373 38.3594 29.593 38.378C29.4323 38.3904 29.2845 38.3656 29.1559 38.3035C29.0273 36.5029 28.9887 35.4226 29.0466 35.0749C28.918 33.2432 29.2973 32.0263 30.1973 31.4302C30.7116 31.8897 31.0202 32.1132 31.1102 32.107C31.5409 32.0759 31.7338 31.8214 31.7017 31.3309L31.6824 31.0266C31.3674 30.5547 30.8466 30.3436 30.1266 30.3933C29.3359 30.5299 28.9502 30.6603 28.9566 30.7907C27.8894 30.859 27.388 32.8831 27.4394 36.8506L27.478 37.3784L27.4008 37.9061C27.478 37.8999 27.523 37.931 27.523 37.9993L27.4201 38.2228C27.478 39.0486 27.5809 41.4453 27.7223 45.419C28.0373 46.2386 28.3202 46.6359 28.5709 46.6173L29.1109 46.5801C29.683 46.4745 29.953 46.2137 29.9209 45.7915C29.5866 45.1768 29.4066 44.6677 29.3809 44.2641C29.323 43.4756 29.2587 42.0165 29.1752 39.8806C29.233 39.7378 29.2652 39.6322 29.2587 39.5577C30.7309 39.4584 31.5667 39.0548 31.7724 38.3346C31.7531 38.2042 31.5345 38.1172 31.0974 38.0738Z" fill="#0D0802"/>
<path d="M37.5389 43.3763L36.5553 43.4384C36.0025 44.4628 35.5653 44.9906 35.2503 45.0092C34.8196 44.0344 34.556 42.7864 34.4467 41.2714L34.511 40.7375L34.3889 40.5388C34.4467 40.4084 34.4724 40.2656 34.466 40.1166L34.4017 39.1666C36.1117 38.6699 36.9475 38.1918 36.9153 37.7323C36.716 37.4653 36.5618 37.335 36.4525 37.3412L36.1246 37.3598C35.9446 37.3722 35.5203 37.5088 34.8389 37.7634L34.4081 37.7944C34.4403 33.3674 34.9353 31.1198 35.8996 31.0577L36.761 31.0018C37.0182 30.859 37.1789 30.6355 37.2561 30.3374C36.7096 30.0953 36.1246 29.996 35.501 30.0332L35.2824 30.0456C34.0674 30.3312 33.4824 30.7534 33.521 31.3185C33.0002 31.3557 32.801 35.2301 32.9295 42.9416L32.9617 43.3701C33.1031 45.3259 33.6431 46.2696 34.5817 46.2076C35.2889 46.1579 35.6489 46.102 35.6617 46.0337C37.0375 45.9406 37.6675 45.0899 37.5582 43.4818L37.5389 43.3763Z" fill="#0D0802"/>
<path d="M43.7555 42.8671L42.7719 42.9292C42.219 43.9537 41.7819 44.4814 41.4669 44.5001C41.0362 43.5253 40.7726 42.2773 40.6633 40.7623L40.7276 40.2283L40.6054 40.0296C40.6633 39.8992 40.689 39.7564 40.6826 39.6074L40.6183 38.6574C42.3283 38.1607 43.1641 37.6826 43.1319 37.2232C42.9326 36.9562 42.7783 36.8258 42.6691 36.832L42.3412 36.8506C42.1612 36.863 41.7369 36.9996 41.0554 37.2542L40.6247 37.2853C40.6569 32.8583 41.1519 30.6106 42.1162 30.5485L42.9776 30.4927C43.2348 30.3498 43.3955 30.1263 43.4726 29.8283C42.9262 29.5861 42.3412 29.4868 41.7176 29.5241L41.499 29.5365C40.284 29.8221 39.699 30.2443 39.7376 30.8093C39.2168 30.8466 39.0175 34.721 39.1461 42.4325L39.1783 42.8609C39.3197 44.8167 39.8597 45.7605 40.7983 45.6984C41.5055 45.6487 41.8655 45.5929 41.8783 45.5246C43.2541 45.4314 43.8841 44.5808 43.7748 42.9727L43.7555 42.8671Z" fill="#0D0802"/>
<path d="M52.9164 52.9877C52.9357 52.907 52.9357 52.8201 52.9164 52.7332C52.8586 52.4227 52.6014 52.193 52.2543 52.1495C52.235 52.1495 52.2093 52.1433 52.19 52.1433C51.9714 51.5969 51.6114 49.9764 51.9778 45.5308C52.73 36.4346 52.5693 29.5799 51.4507 23.3027C51.3607 22.7811 51.2835 22.1913 51.2321 21.4959C51.0842 19.6146 51.0971 17.28 51.1035 15.0261C51.1164 12.2197 51.1292 9.31389 50.8464 7.04762C50.6278 5.27185 50.1328 2.85657 48.397 2.35985C46.2434 1.73895 33.4503 1.23603 26.0122 0.993879C21.2486 0.838655 16.2599 0.708266 12.3384 0.639968C6.06393 0.528206 5.85821 0.621341 5.67178 0.695848C5.62035 0.720684 5.53678 0.74552 5.4532 0.770356C5.04177 0.900744 4.36032 1.11185 3.82674 1.88176C3.27387 2.68272 3.00386 3.92451 3.00386 5.67544C3.00386 7.44499 2.50885 11.8844 1.9817 16.5846C1.24882 23.1288 0.496663 29.8966 0.721668 32.225C0.908101 34.1435 1.06239 38.9431 1.00453 43.6681C0.908101 51.895 0.258801 52.9381 0.188085 53.0312C-0.00477633 53.2547 -0.0562067 53.5528 0.065939 53.8197C0.188085 54.0929 0.522378 54.8256 5.14463 55.0119C8.76399 55.1547 33.521 57.5762 37.4489 58.166C39.2747 58.4454 41.0362 58.5882 42.5083 58.5882C42.8233 58.5882 43.1255 58.582 43.4148 58.5696C44.9962 58.4951 46.1406 58.2281 46.8606 57.75L47.002 57.9797L47.5484 57.0546L47.7285 56.7876C48.5835 55.6514 50.7628 54.0619 51.8235 53.5403C51.9264 53.5776 52.0293 53.59 52.1257 53.59C52.2671 53.59 52.4021 53.559 52.505 53.5031C52.6786 53.4224 52.8007 53.2858 52.8714 53.1305L53 53.0809L52.9164 52.9877ZM43.3569 57.3216C41.814 57.3961 39.7826 57.2533 37.6482 56.9304C33.7074 56.3344 8.83471 53.9005 5.19606 53.7577C2.95886 53.6707 1.91741 53.4534 1.4674 53.3106C1.79526 52.4786 2.2067 50.2744 2.29028 43.7364C2.34813 38.9493 2.18742 34.0628 2.00098 32.1008C1.78884 29.8966 2.57314 22.8929 3.26101 16.7088C3.78817 11.9775 4.28961 7.50708 4.28961 5.66923C4.28961 4.1915 4.49533 3.14839 4.89391 2.56475C5.17677 2.15496 5.49821 2.05561 5.84536 1.94385C5.93536 1.91281 6.02536 1.88797 6.11536 1.85072C7.07324 1.75137 16.1699 1.89418 26.3787 2.23567C38.5032 2.63925 46.597 3.12976 48.0242 3.53955C48.5385 3.68857 49.2263 4.43985 49.5671 7.19042C49.8371 9.38219 49.8242 12.2445 49.8114 15.0199C49.7985 17.2862 49.7921 19.627 49.9399 21.558C49.9399 21.5952 49.9399 21.6263 49.9399 21.6635C49.9399 21.6884 49.9399 21.7194 49.9399 21.7442C49.9399 21.7815 49.9335 21.825 49.9335 21.8622C49.9335 21.887 49.9335 21.9181 49.9271 21.9429C49.9271 21.9802 49.9206 22.0236 49.9206 22.0609C49.9206 22.0857 49.9142 22.1168 49.9142 22.1416C49.9142 22.1851 49.9078 22.2223 49.9014 22.2658C49.9014 22.2968 49.8949 22.3217 49.8949 22.3527C49.8885 22.3962 49.8885 22.4334 49.8821 22.4769C49.8821 22.5079 49.8756 22.5328 49.8756 22.5638C49.8692 22.6073 49.8692 22.6507 49.8628 22.688C49.8564 22.719 49.8564 22.7439 49.8564 22.7749C49.8499 22.8184 49.8435 22.8618 49.8435 22.9053C49.8371 22.9364 49.8371 22.9674 49.8306 22.9922C49.8242 23.0357 49.8178 23.0792 49.8114 23.1226C49.8049 23.1537 49.8049 23.1847 49.7985 23.2158C49.7921 23.2592 49.7856 23.3027 49.7792 23.3461C49.7728 23.3772 49.7728 23.4082 49.7664 23.4393C49.7599 23.4827 49.7535 23.5262 49.7471 23.5697C49.7406 23.6007 49.7342 23.6318 49.7342 23.669C49.7278 23.7125 49.7214 23.7559 49.7149 23.7994C49.7085 23.8304 49.7021 23.8677 49.6956 23.8987C49.6892 23.9422 49.6828 23.9857 49.6699 24.0291C49.6635 24.0602 49.6571 24.0974 49.6506 24.1285C49.6442 24.1719 49.6314 24.2216 49.6249 24.2651C49.6185 24.2961 49.6121 24.3334 49.6056 24.3644C49.5992 24.4079 49.5864 24.4576 49.5799 24.501C49.5735 24.5321 49.5671 24.5693 49.5606 24.6004C49.5542 24.6438 49.5414 24.6935 49.5349 24.737C49.5285 24.768 49.5221 24.8053 49.5156 24.8363C49.5028 24.886 49.4963 24.9294 49.4835 24.9791C49.4771 25.0164 49.4706 25.0474 49.4642 25.0847C49.4513 25.1343 49.4449 25.1778 49.4321 25.2275C49.4256 25.2647 49.4192 25.2958 49.4063 25.333C49.3935 25.3827 49.3871 25.4324 49.3742 25.4758C49.3678 25.5131 49.3613 25.5441 49.3485 25.5814C49.3356 25.631 49.3292 25.6807 49.3163 25.7304C49.3099 25.7676 49.2971 25.7987 49.2906 25.8359C49.2778 25.8856 49.2713 25.9353 49.2585 25.9788C49.2521 26.016 49.2392 26.0533 49.2328 26.0905C49.2199 26.1402 49.2071 26.1899 49.2006 26.2395C49.1942 26.2768 49.1813 26.314 49.1749 26.3513C49.1621 26.401 49.1492 26.4506 49.1363 26.5003C49.1299 26.5376 49.1171 26.5748 49.1106 26.6121C49.0978 26.6679 49.0849 26.7238 49.0721 26.7797C49.0656 26.8107 49.0592 26.8418 49.0463 26.879C49.0335 26.9411 49.0142 27.0032 49.0013 27.0715C48.9949 27.0964 48.9885 27.1212 48.9821 27.146C48.9628 27.2143 48.9499 27.2826 48.9306 27.3509C48.9242 27.3696 48.9178 27.3944 48.9178 27.413C48.9049 27.4751 48.8856 27.5372 48.8663 27.6055C48.8599 27.6303 48.8535 27.6614 48.847 27.6862C48.8342 27.7421 48.8213 27.7918 48.8085 27.8476C48.7956 27.8849 48.7892 27.9222 48.7763 27.9594C48.7635 28.0091 48.7506 28.0588 48.7378 28.1022C48.7249 28.1457 48.712 28.1891 48.7056 28.2326C48.6863 28.3009 48.6735 28.3692 48.6542 28.4375C48.6478 28.4623 48.6413 28.4872 48.6349 28.512C48.5642 28.7914 48.487 29.0832 48.4099 29.3688C47.3749 33.3736 46.0827 38.3222 45.6648 44.0779C45.652 44.2269 45.6455 44.3697 45.6327 44.5125C45.6327 44.556 45.6263 44.6056 45.6263 44.6491C45.6198 44.7484 45.6134 44.8416 45.607 44.9409C45.607 44.9906 45.6005 45.0403 45.6005 45.0899C45.5941 45.1831 45.5877 45.2762 45.5813 45.3693C45.5813 45.419 45.5748 45.4625 45.5748 45.5121C45.5684 45.6239 45.562 45.7295 45.5555 45.835C45.5555 45.8599 45.5555 45.8847 45.5491 45.9157C45.5427 46.0461 45.5363 46.1827 45.5298 46.3069C45.5298 46.3441 45.5298 46.3752 45.5234 46.4062C45.517 46.4994 45.517 46.5987 45.5105 46.6919C45.5105 46.7353 45.5041 46.7788 45.5041 46.8222C45.4977 46.9092 45.4977 46.9899 45.4913 47.0768C45.4913 47.1203 45.4848 47.1637 45.4848 47.2072C45.4784 47.3003 45.4784 47.3873 45.4784 47.4742C45.4784 47.5052 45.4784 47.5425 45.472 47.5735C45.4655 47.6915 45.4655 47.8095 45.4591 47.9274C45.4591 47.9461 45.4591 47.9647 45.4591 47.9833C45.4591 48.0827 45.4527 48.1758 45.4527 48.2751C45.4527 48.3124 45.4527 48.3496 45.4527 48.3869C45.4527 48.4676 45.4527 48.5421 45.4463 48.6166C45.4463 48.6539 45.4463 48.6911 45.4463 48.7346C45.4463 48.8153 45.4463 48.8898 45.4463 48.9705C45.4463 49.0016 45.4463 49.0326 45.4463 49.0637C45.4463 49.1692 45.4463 49.2748 45.4463 49.3803C45.4463 49.3803 45.4463 49.3803 45.4463 49.3865C45.4463 49.4921 45.4463 49.5976 45.4463 49.697C45.4463 49.728 45.4463 49.7529 45.4463 49.7839C45.4463 49.8584 45.4463 49.9329 45.4463 50.0012C45.4463 50.0323 45.4463 50.0695 45.4463 50.1006C45.4463 50.1689 45.4463 50.2372 45.4463 50.3055C45.4463 50.3365 45.4463 50.3676 45.4463 50.3986C45.4463 50.4793 45.4463 50.56 45.4527 50.6345C45.4527 50.647 45.4527 50.6656 45.4527 50.678C45.4527 50.7711 45.4591 50.8643 45.4591 50.9574C45.4591 50.976 45.4591 50.9947 45.4591 51.0133C45.4591 51.0878 45.4655 51.1561 45.4655 51.2244C45.4655 51.2492 45.4655 51.2803 45.4655 51.3051C45.4655 51.3672 45.472 51.4293 45.472 51.4914C45.472 51.5162 45.472 51.5473 45.4784 51.5721C45.4784 51.6404 45.4848 51.7025 45.4848 51.7708C45.4848 51.7894 45.4848 51.808 45.4848 51.8267C45.4913 51.9136 45.4913 51.9943 45.4977 52.075C45.4977 52.0812 45.4977 52.0874 45.4977 52.0874C45.5041 52.1619 45.5041 52.2365 45.5105 52.311C45.5105 52.3296 45.5105 52.3544 45.517 52.3731C45.5234 52.4289 45.5234 52.4848 45.5298 52.5407C45.5298 52.5655 45.5363 52.5842 45.5363 52.609C45.5427 52.6649 45.5427 52.7208 45.5491 52.7766C45.5491 52.7953 45.5491 52.8139 45.5555 52.8325C45.5684 52.9815 45.5813 53.1243 45.5941 53.2609C45.5941 53.2733 45.5941 53.292 45.6005 53.3044C45.607 53.3603 45.6134 53.41 45.6134 53.4596C45.6134 53.4782 45.6198 53.4969 45.6198 53.5155C45.6263 53.5652 45.6327 53.6148 45.6327 53.6645C45.6327 53.6831 45.6391 53.6956 45.6391 53.7142C45.6455 53.7701 45.652 53.826 45.6584 53.8818C45.6584 53.888 45.6584 53.8943 45.6584 53.9005C45.6648 53.9626 45.6713 54.0246 45.6841 54.0867C45.6841 54.0929 45.6841 54.0991 45.6841 54.1054C45.6905 54.155 45.697 54.2047 45.7034 54.2544C45.7034 54.2668 45.7098 54.2854 45.7098 54.2978C45.7163 54.3413 45.7227 54.3848 45.7291 54.422C45.7291 54.4344 45.7355 54.4531 45.7355 54.4655C45.742 54.5089 45.7484 54.5524 45.7548 54.5959C45.7548 54.6021 45.7548 54.6145 45.7613 54.6207C45.7806 54.7262 45.7934 54.8256 45.8127 54.9249C45.8127 54.9374 45.8191 54.9436 45.8191 54.956C45.8256 54.9932 45.832 55.0305 45.8384 55.0677C45.8384 55.0802 45.8448 55.0926 45.8448 55.105C45.8513 55.1423 45.8577 55.1795 45.8641 55.2105C45.8641 55.2168 45.8706 55.2292 45.8706 55.2354C45.8898 55.3223 45.9027 55.4092 45.922 55.49C45.922 55.4962 45.922 55.5024 45.9284 55.5086C45.9348 55.5396 45.9413 55.5769 45.9477 55.6079C45.9477 55.6141 45.9541 55.6265 45.9541 55.6328C45.9606 55.6638 45.967 55.6949 45.9734 55.7197C45.9734 55.7259 45.9798 55.7321 45.9798 55.7445C45.9863 55.7756 45.9991 55.8128 46.0056 55.8439V55.8501C46.012 55.8873 46.0248 55.9184 46.0313 55.9556C46.0377 55.9867 46.0506 56.0177 46.057 56.0488C46.057 56.055 46.057 56.0612 46.0634 56.0674C46.0698 56.0922 46.0763 56.1171 46.0827 56.1419C46.0827 56.1481 46.0891 56.1543 46.0891 56.1605C46.0956 56.1854 46.102 56.2102 46.1084 56.235V56.2412C46.1277 56.2971 46.1406 56.3468 46.1598 56.3965C46.1598 56.4027 46.1598 56.4027 46.1598 56.4089C46.1663 56.4275 46.1727 56.4523 46.1791 56.471C46.1791 56.4772 46.1791 56.4772 46.1856 56.4834C46.192 56.502 46.1984 56.5206 46.2048 56.5393V56.5455C46.2113 56.5703 46.2177 56.5889 46.2306 56.6076C45.9348 56.8994 45.1698 57.2409 43.3569 57.3216ZM50.9685 52.5034L50.7435 52.5904L50.8207 52.6649C49.7535 53.2796 48.2492 54.3848 47.2463 55.4279C47.2399 55.403 47.2334 55.3782 47.227 55.3471C47.227 55.3409 47.227 55.3409 47.227 55.3347C47.2206 55.3037 47.2142 55.2788 47.2077 55.2478C47.2077 55.2416 47.2077 55.2354 47.2013 55.2292C47.1949 55.1919 47.1884 55.1609 47.182 55.1236C47.1756 55.0864 47.1692 55.0553 47.1627 55.0181C47.1627 55.0119 47.1627 55.0057 47.1563 54.9994C47.1434 54.9249 47.1242 54.8442 47.1113 54.7635C47.1113 54.7573 47.1113 54.7511 47.1049 54.7449C47.092 54.6642 47.0727 54.5772 47.0599 54.4841C47.0599 54.4779 47.0599 54.4717 47.0534 54.4655C47.047 54.422 47.0406 54.3785 47.0341 54.3289C47.0341 54.3289 47.0341 54.3289 47.0341 54.3227C47.0277 54.273 47.0213 54.2233 47.0149 54.1737C47.0149 54.1674 47.0149 54.1612 47.0149 54.155C47.0084 54.1116 47.002 54.0619 46.9956 54.0122C46.9956 54.006 46.9956 54.006 46.9956 53.9998C46.9892 53.9501 46.9827 53.8943 46.9763 53.8384C46.9763 53.8322 46.9763 53.826 46.9763 53.8197C46.9699 53.7701 46.9634 53.7204 46.957 53.6645C46.957 53.6583 46.957 53.6521 46.957 53.6459C46.9506 53.59 46.9441 53.5279 46.9377 53.472C46.9377 53.4658 46.9377 53.4658 46.9377 53.4596C46.9313 53.4037 46.9249 53.3479 46.9184 53.292C46.9184 53.2858 46.9184 53.2734 46.9184 53.2671C46.912 53.2051 46.9056 53.143 46.8991 53.0809C46.8927 53.0188 46.8863 52.9567 46.8799 52.8946C46.8799 52.8822 46.8799 52.8698 46.8799 52.8636C46.867 52.7332 46.8606 52.6028 46.8477 52.46C46.8477 52.4476 46.8477 52.4351 46.8477 52.4227C46.8349 52.2861 46.8284 52.1371 46.822 51.9943C46.822 51.9819 46.822 51.9695 46.822 51.9571C46.8156 51.8888 46.8156 51.8205 46.8091 51.7459C46.8091 51.7397 46.8091 51.7335 46.8091 51.7273C46.8027 51.6528 46.8027 51.5721 46.7963 51.4976C46.7963 51.4852 46.7963 51.4728 46.7963 51.4603C46.7963 51.392 46.7899 51.3175 46.7899 51.2492C46.7899 51.2368 46.7899 51.2306 46.7899 51.2182C46.7899 51.1375 46.7834 51.0568 46.7834 50.9698C46.7834 50.9574 46.7834 50.945 46.7834 50.9326C46.7834 50.8581 46.777 50.7836 46.777 50.7091C46.777 50.6966 46.777 50.678 46.777 50.6656C46.777 50.5787 46.7706 50.4917 46.7706 50.4048C46.7706 50.3924 46.7706 50.3862 46.7706 50.3738C46.7706 50.293 46.7706 50.2123 46.7641 50.1316C46.7641 50.113 46.7641 50.0944 46.7641 50.0757C46.7641 49.9826 46.7641 49.8957 46.7641 49.8025C46.7641 49.7963 46.7641 49.7901 46.7641 49.7839C46.7641 49.697 46.7641 49.6101 46.7641 49.5169C46.7641 49.4983 46.7641 49.4735 46.7641 49.4548C46.7641 49.2624 46.7641 49.0699 46.7706 48.8712C46.7706 48.8464 46.7706 48.8277 46.7706 48.8029C46.7706 48.7098 46.7706 48.6104 46.777 48.5173C46.777 48.5111 46.777 48.5049 46.777 48.4987C46.777 48.3931 46.7834 48.2938 46.7834 48.1882C46.7834 48.1634 46.7834 48.1385 46.7834 48.1137C46.7834 48.0206 46.7899 47.9274 46.7899 47.8343C46.7899 47.8157 46.7899 47.8033 46.7899 47.7846C46.7899 47.6791 46.7963 47.5673 46.8027 47.4618C46.8027 47.4369 46.8027 47.4121 46.8027 47.3873C46.8027 47.2941 46.8091 47.201 46.8156 47.1079C46.8156 47.083 46.8156 47.0644 46.8156 47.0396C46.822 46.9278 46.822 46.816 46.8284 46.6981C46.8284 46.6732 46.8284 46.6484 46.8284 46.6236C46.8349 46.5304 46.8349 46.4311 46.8413 46.3317C46.8413 46.3069 46.8413 46.2759 46.8477 46.251C46.8541 46.133 46.8606 46.0151 46.867 45.8971C46.867 45.8785 46.867 45.8536 46.8734 45.835C46.8799 45.7295 46.8863 45.6301 46.8927 45.5246C46.8927 45.4935 46.8991 45.4625 46.8991 45.4314C46.9056 45.3073 46.912 45.1831 46.9249 45.0589C46.9249 45.0465 46.9249 45.0341 46.9249 45.0154C46.9313 44.9037 46.9377 44.7857 46.9506 44.6677C46.9506 44.6367 46.957 44.5994 46.957 44.5684C46.9634 44.438 46.9763 44.3076 46.9827 44.171C47.0213 43.6432 47.0663 43.1217 47.1177 42.6064C47.6256 37.6206 48.7635 33.2681 49.6892 29.7041C49.7278 29.5613 49.7599 29.4247 49.7985 29.2881C49.8049 29.2571 49.8114 29.226 49.8242 29.195C49.8628 29.0584 49.8949 28.9218 49.9335 28.7852C49.9399 28.7542 49.9464 28.7231 49.9592 28.6921C49.9914 28.5679 50.0235 28.4375 50.0556 28.3133C50.0621 28.2947 50.0621 28.2823 50.0685 28.2636C50.1007 28.1271 50.1392 27.9967 50.1714 27.8663C50.1778 27.8352 50.1842 27.8042 50.1971 27.7731C50.2292 27.6427 50.2614 27.5124 50.2935 27.382C50.2999 27.3571 50.3064 27.3323 50.3128 27.3137C50.3449 27.1957 50.3707 27.0777 50.4028 26.9598C50.4092 26.9349 50.4157 26.9163 50.4221 26.8915C50.4542 26.7673 50.4799 26.6369 50.5121 26.5127C50.5185 26.4817 50.5249 26.4568 50.5314 26.4258C50.5635 26.3016 50.5892 26.1712 50.6214 26.047C50.6214 26.0408 50.6214 26.0346 50.6278 26.0346C51.3671 31.542 51.3993 37.6578 50.7499 45.4439C50.4157 48.8836 50.5057 51.2554 50.9685 52.5034Z" fill="#0D0802"/>
</svg>
