<svg width="60" height="60" viewBox="0 0 60 60" fill="none" xmlns="http://www.w3.org/2000/svg">
<path d="M57.4221 30.0882C57.4221 45.497 44.9308 57.9883 29.522 57.9883C14.1132 57.9883 1.62195 45.497 1.62195 30.0882C1.62195 14.6794 14.1132 2.18814 29.522 2.18814C44.9308 2.18814 57.4221 14.6794 57.4221 30.0882Z" stroke="#0D0802"/>
<path d="M38.5979 12.8051H35.6725C35.4132 12.8051 35.2516 12.9324 35.2139 13.1167C35.1771 13.3018 30.8267 26.566 30.5105 27.671C30.2864 28.4542 29.5556 31.2156 29.3802 31.8786L27.8672 27.748C27.4996 26.6111 23.9759 16.7675 23.8729 16.3743C23.8159 16.1582 23.7167 15.8894 23.3375 15.8894H20.4815C20.2021 15.8894 20.0441 16.1957 20.1343 16.3857C20.2062 16.5378 25.3654 30.2632 27.4494 35.5063V47.0349C27.4494 47.2451 27.5335 47.3714 27.7434 47.3714H30.4483C30.616 47.3714 30.742 47.2451 30.742 47.0349V36.1066V35.5972C32.4793 30.7448 38.8257 13.4834 38.8949 13.2902C38.9791 13.0539 38.9544 12.8051 38.5979 12.8051Z" fill="#0D0802"/>
</svg>
